<svg width="141" height="251" viewBox="0 0 141 251" fill="none" xmlns="http://www.w3.org/2000/svg">
<g clip-path="url(#clip0_527_9637)">
<path d="M64.1201 9.01114C64.1201 9.01114 67.7211 -0.452301 77.4937 0.0171499C87.2663 0.4866 88.6002 8.38711 88.4399 9.01114C88.4399 9.01114 95.6763 5.37576 101.258 5.51888C106.84 5.66201 115.153 8.19246 111.529 19.9688C111.529 19.9688 125.149 21.7264 125.149 30.2223C124.971 36.1763 117.512 44.6207 105.798 44.6207C103.508 44.6493 102.14 44.6493 102.14 44.6493C102.14 44.6493 103.268 46.7962 103.268 48.4793C103.268 50.1625 103.107 52.9105 101.447 55.5039C99.7869 58.0974 96.0656 66.7822 87.4209 66.7822C86.0354 66.7822 84.587 66.3242 84.0717 66.1238C83.5565 65.9234 70.1485 64.5895 64.0399 67.7841C62.1335 68.6714 50.4316 70.7153 50.3056 56.1394C50.3056 56.1394 26.8732 59.5916 26.8732 42.1761C26.7072 29.6555 36.3939 25.545 41.5807 23.5527C41.5807 23.5527 39.2278 21.4802 39.4281 17.4899C39.6285 13.4995 46.0462 5.08378 55.5039 5.08378C58.8932 5.00363 62.6602 7.87186 64.1258 9.01114H64.1201Z" fill="#CB116D"/>
<path d="M82.7951 33.4112C82.7951 33.4112 82.9497 25.7454 74.2534 25.9744C65.5571 26.2034 65.1735 35.621 68.6085 36.8061C68.6085 36.8061 74.2534 33.1078 82.7951 33.4112Z" fill="#EAA21D"/>
<path d="M105.747 250.08L21.4058 249.61L8.95964 182.055H115.078L105.747 250.08Z" fill="#984424"/>
<path d="M119.527 180.836L126.362 152.016C126.362 152.016 71.7114 182.416 0.160294 153.304L4.56855 180.95C4.56855 180.95 25.9286 189.16 62.4369 189.16C98.9453 189.16 114.145 186.584 119.521 180.836H119.527Z" fill="#984424"/>
<path d="M63.1869 166.455C98.0841 166.455 126.374 160.118 126.374 152.302C126.374 144.486 98.0841 138.15 63.1869 138.15C28.2897 138.15 0 144.486 0 152.302C0 160.118 28.2897 166.455 63.1869 166.455Z" fill="#BE581E"/>
<path d="M61.269 160.375C87.4395 160.375 108.655 158.222 108.655 155.566C108.655 152.91 87.4395 150.757 61.269 150.757C35.0985 150.757 13.8831 152.91 13.8831 155.566C13.8831 158.222 35.0985 160.375 61.269 160.375Z" fill="#573E27"/>
<path d="M75.4613 70.7382C79.499 70.7382 82.7722 68.4518 82.7722 65.6315C82.7722 62.8111 79.499 60.5248 75.4613 60.5248C71.4237 60.5248 68.1505 62.8111 68.1505 65.6315C68.1505 68.4518 71.4237 70.7382 75.4613 70.7382Z" fill="#527233"/>
<path d="M67.3662 151.335C67.3662 151.335 71.0817 127.565 91.4627 118.078C103.262 112.714 107.802 110.979 127.032 110.567C127.032 110.567 128.767 139.204 112.84 147.207C96.1515 155.342 82.3772 155.995 67.8013 155.995L67.3662 151.335Z" fill="#396A33"/>
<path d="M68.0016 151.821C68.0016 151.821 80.7684 149.703 94.0791 139.015C107.39 128.326 126.775 110.578 126.775 110.578C126.775 110.578 97.8404 149.228 68.5226 155.623L68.0016 151.821Z" fill="#2F522A"/>
<path d="M29.3521 79.5031C29.3521 79.5031 26.3293 101.859 37.9224 111.718C45.7371 118.313 55.4467 122.017 64.5838 121.954C64.5838 121.954 67.7955 102.3 57.9657 91.0562C51.4106 83.774 43.0921 78.9364 29.3521 79.5031Z" fill="#396A33"/>
<path d="M62.5572 121.954C62.5572 121.954 52.1319 103.405 48.0214 99.0083C43.9108 94.6172 29.3006 79.3429 29.3006 79.3429C29.3006 79.3429 56.8951 99.4606 64.5838 121.37" fill="#2F552C"/>
<path d="M78.2208 88.1937C78.2208 88.1937 89.5105 71.9748 107.155 70.4863C124.799 68.9978 134.727 71.5569 140.188 73.8755C140.188 73.8755 138.047 90.5696 111.729 95.2641C93.4264 98.7678 77.1502 95.9797 76.675 95.7393C76.1999 95.4988 78.2208 88.1937 78.2208 88.1937Z" fill="#3A6531"/>
<path d="M78.0032 90.6326C78.0032 90.6326 108.1 89.6593 139.141 73.7495L139.931 74.0415L139.736 74.8602C139.736 74.8602 103.285 93.5409 77.6483 92.8939L78.009 90.6383L78.0032 90.6326Z" fill="#2E542B"/>
<path d="M73.8583 70.8012C73.8583 70.8012 76.0338 87.4953 69.4157 101.751C62.7976 116.006 58.8416 131.458 58.6241 140.595C58.4065 149.732 59.8779 156.51 62.8949 160.489H69.4501C69.4501 160.489 64.6983 138.854 68.5054 121.347C72.3126 103.84 76.0796 105.495 78.1922 89.1498C79.0681 83.5279 77.3162 71.8088 76.2571 70.5836L73.8526 70.8012H73.8583Z" fill="#5D9234"/>
<path d="M101.733 44.426C101.733 44.426 86.94 29.5238 69.5588 37.2869C52.1777 45.0501 50.4087 55.9218 50.4087 55.9218C50.4087 55.9218 49.4755 73.8984 66.9368 66.6734C68.9005 66.0093 78.3296 64.6754 84.6385 66.3585C87.3178 67.0627 94.6401 68.0245 100.022 57.8168C102.031 53.5918 105.157 49.2808 101.733 44.4203V44.426Z" fill="#D62E7C"/>
<path d="M41.9529 23.5298C41.9529 23.5298 44.7009 22.4879 49.0061 22.6596C53.3113 22.8314 59.3798 24.3313 62.3682 26.7931C63.3358 27.6289 66.3242 33.0791 64.3434 36.6802C62.3625 40.2812 59.1107 40.4186 56.6089 43.3154C54.107 46.2123 44.7066 55.899 34.2069 54.2388C29.6155 53.3857 23.6786 43.7448 28.625 33.5028C30.7147 28.7625 37.6076 24.9153 41.9586 23.5241L41.9529 23.5298Z" fill="#D62E7C"/>
<path d="M64.2174 9.19437C64.2174 9.19437 70.5035 18.9956 68.4539 23.4153C66.4044 27.835 60.3359 22.6138 57.4791 22.0756C54.6223 21.5375 39.1018 21.2283 39.3709 17.9708C39.64 14.7133 42.8975 8.60469 49.8534 6.10287C56.8093 3.60104 61.0057 6.43492 64.2174 9.18864V9.19437Z" fill="#D62E7C"/>
<path d="M65.1048 7.10476C65.1048 7.10476 68.3852 9.07989 69.7936 16.3392C70.5321 20.1807 72.5072 23.0718 73.5664 23.2493C74.6255 23.4268 77.8315 18.8067 79.4173 16.2362C81.0031 13.6656 84.8103 9.07989 88.3369 7.98641C88.3369 7.98641 86.9629 -0.549572 75.4213 0.0286533C72.8393 0.206129 68.1562 1.70608 65.1048 7.10476Z" fill="#D62E7D"/>
<path d="M88.1651 9.33175C88.1651 9.33175 78.8276 17.2494 76.7266 25.419C76.2857 26.5411 82.2855 25.9114 82.2855 25.9114C82.2855 25.9114 86.356 22.2187 94.3997 20.3638C102.443 18.5089 110.825 15.6064 111.701 11.6733C112.577 7.7402 101.293 1.58009 88.1651 9.3432V9.33175Z" fill="#D62E7D"/>
<path d="M111.306 19.8658C111.306 19.8658 92.7566 19.6712 82.4745 28.5392C81.4612 29.5296 83.9344 31.3731 83.9344 31.3731C83.9344 31.3731 90.5925 31.1956 101.396 38.5294C105.128 41.0026 116.201 41.409 119.303 40.1037C120.609 39.5198 135.929 25.0527 111.306 19.8658Z" fill="#D62E7D"/>
<path d="M93.8901 25.0756C93.8901 25.0756 104.075 22.339 109.68 22.5451C115.284 22.7512 122.326 26.7129 122.12 31.3617C121.914 36.0104 115.697 36.0791 110.704 35.5982C105.712 35.1173 94.3023 29.7873 94.0275 28.9686C93.7527 28.1499 95.8023 27.2396 95.745 26.2492C95.6878 25.2588 94.1478 25.1557 93.8959 25.0756H93.8901Z" fill="#DA6297"/>
<path d="M105.712 9.96725C105.712 9.96725 102.415 4.98077 94.0562 8.09517C90.7929 9.25735 85.3198 13.1561 85.0221 15.6694C84.7244 18.1826 92.0295 17.2838 95.9282 16.3048C99.827 15.3259 104.584 13.4538 105.712 9.96725Z" fill="#D96097"/>
<path d="M81.2608 4.46553C81.2608 4.46553 80.0528 1.88355 75.885 2.02667C71.7172 2.1698 69.7936 4.95788 69.3413 5.9254C68.889 6.89293 69.8107 11.4844 74.6312 11.6504C76.1884 11.6733 81.318 7.48833 81.255 4.47125L81.2608 4.46553Z" fill="#D96097"/>
<path d="M44.9184 11.0264C44.9184 11.0264 50.3056 7.1391 55.8646 7.42535C61.4236 7.7116 65.7231 13.6599 65.6258 16.219C65.5284 18.778 63.4045 18.0567 62.5801 17.9594C61.7557 17.862 57.7711 15.9327 55.9848 15.5663C54.1986 15.1999 46.9966 15.7381 44.9928 12.887C44.6322 12.2573 44.5577 11.6332 44.9184 11.0264Z" fill="#D86398"/>
<path d="M49.4011 33.6172C49.4011 33.6172 53.1109 28.9857 48.6855 27.3083C44.26 25.6308 36.5885 28.4246 33.9149 30.7032C31.2414 32.9817 28.2071 37.5675 28.2472 40.5216C28.2873 43.4757 30.7204 48.9831 35.953 48.8629C41.1857 48.7427 46.1722 45.2332 46.5729 42.2391C46.6817 41.1456 45.8344 40.4128 45.8058 39.8231C45.7772 39.2334 47.9927 34.7966 49.4068 33.6229L49.4011 33.6172Z" fill="#D86398"/>
<path d="M75.5243 54.6108C75.5243 54.6108 78.8906 56.6776 84.3694 56.6031C89.8483 56.5287 91.4513 54.2673 91.4513 51.7426C91.4513 49.2179 88.2338 45.0043 76.904 44.8153C65.5742 44.6264 59.9466 50.3686 57.9943 52.2063C56.0421 54.0441 48.9202 63.0037 58.9103 63.3472C64.6525 63.4216 68.0589 58.292 68.786 57.1814C69.5131 56.0707 72.0034 53.2769 75.5243 54.6166V54.6108Z" fill="#D86398"/>
</g>
<defs>
<clipPath id="clip0_527_9637">
<rect width="140.194" height="250.08" fill="white"/>
</clipPath>
</defs>
</svg>
