<svg width="123" height="206" viewBox="0 0 123 206" fill="none" xmlns="http://www.w3.org/2000/svg">
<g clip-path="url(#clip0_527_9636)">
<path d="M102.893 205.366L20.8312 204.9L8.71509 137.11H111.981L102.893 205.366Z" fill="#984424"/>
<path d="M116.307 135.88L122.96 106.96C122.96 106.96 69.7843 137.466 0.160889 108.253L4.45239 135.995C4.45239 135.995 25.232 144.233 60.7589 144.233C96.2859 144.233 111.073 141.648 116.307 135.88Z" fill="#984424"/>
<path d="M61.4828 121.449C95.4387 121.449 122.966 115.091 122.966 107.247C122.966 99.4039 95.4387 93.0457 61.4828 93.0457C27.5268 93.0457 0 99.4039 0 107.247C0 115.091 27.5268 121.449 61.4828 121.449Z" fill="#BE581E"/>
<path d="M59.6214 115.353C85.0868 115.353 105.731 113.193 105.731 110.528C105.731 107.862 85.0868 105.702 59.6214 105.702C34.156 105.702 13.5122 107.862 13.5122 110.528C13.5122 113.193 34.156 115.353 59.6214 115.353Z" fill="#573E27"/>
<path d="M65.5732 104.806C65.5732 104.806 70.2497 76.3105 111.332 76.2186C111.332 76.2186 118.611 115.141 66.8314 112.895L65.5732 104.806Z" fill="#396A33"/>
<path d="M66.5211 108.557C66.5211 108.557 77.9479 105.593 91.2015 94.2406C104.461 82.8885 111.332 76.2129 111.332 76.2129C111.332 76.2129 95.7688 98.5034 66.929 112.309L66.5269 108.557H66.5211Z" fill="#2B522A"/>
<path d="M61.4368 115.422C61.4368 115.422 50.5443 104.191 63.436 66.2798C69.8072 48.1027 72.4442 53.8534 72.4442 26.9727C72.4442 26.9727 55.2839 29.2304 62.965 2.65992C63.7061 -1.36731 66.6245 0.44236 67.0037 0.568749C67.3828 0.695139 73.9321 -1.149 81.0789 9.54815C83.8824 14.2188 84.2558 24.1232 75.3799 26.5073C75.3799 26.5073 80.3205 43.2252 71.9961 60.8393C68.2791 68.1871 65.3549 82.4404 65.3549 90.4087C65.3549 98.377 66.682 112.808 68.101 115.549C68.101 115.549 61.6264 115.434 61.431 115.417L61.4368 115.422Z" fill="#668F33"/>
<path d="M63.3039 76.3393C63.3039 76.3393 68.4974 42.3405 34.8088 42.645C34.8088 42.645 29.0811 76.2588 63.3039 76.3393Z" fill="#396A33"/>
<path d="M34.9467 42.9092C34.9467 42.9092 54.02 59.8339 61.1725 76.3105L62.7581 76.0405C62.7581 76.0405 47.465 47.419 34.9467 42.9092Z" fill="#2F552C"/>
<path d="M76.3623 44.5523C76.3623 44.5523 84.411 32.3385 101.181 31.2814C111.01 30.7241 120.392 33.1715 123 34.1711C123 34.1711 119.725 47.6086 100.847 50.4926C92.2414 51.768 79.3611 51.5497 75.4775 50.4351L76.368 44.5523H76.3623Z" fill="#396A33"/>
<path d="M122.627 34.3033C122.627 34.3033 91.1268 47.3961 76.1784 46.7814L75.8624 48.6887C75.8624 48.6887 103.042 46.7986 122.627 34.3033Z" fill="#2A542C"/>
<path d="M63.235 2.79779C63.235 2.79779 79.4875 16.8443 75.6844 26.4729C75.6844 26.4729 78.5396 18.6367 76.3738 13.0813C74.2079 7.52591 70.9735 2.14287 66.3028 0.172338C66.3028 0.172338 63.189 -1.01113 63.235 2.79779Z" fill="#D42F81"/>
<path d="M70.5023 3.34357C70.5023 3.34357 73.8057 4.63619 77.0458 11.9898C78.5453 15.9366 79.9873 19.6248 82.3255 19.7512C82.3255 19.7512 81.4178 25.1687 75.5062 26.3465C75.5062 26.3465 81.5327 16.1491 70.5023 3.34357Z" fill="#4F7333"/>
</g>
<defs>
<clipPath id="clip0_527_9636">
<rect width="123" height="205.366" fill="white"/>
</clipPath>
</defs>
</svg>
